<?xml version="1.0" encoding="UTF-8"?>
<svg width="52.088mm" height="52.088mm" version="1.1" viewBox="0 0 52.088 52.088" xmlns="http://www.w3.org/2000/svg" xmlns:cc="http://creativecommons.org/ns#" xmlns:dc="http://purl.org/dc/elements/1.1/" xmlns:rdf="http://www.w3.org/1999/02/22-rdf-syntax-ns#"><metadata><rdf:RDF><cc:Work rdf:about=""><dc:format>image/svg+xml</dc:format><dc:type rdf:resource="http://purl.org/dc/dcmitype/StillImage"/><dc:title/></cc:Work></rdf:RDF></metadata><g transform="translate(-65.557 -30.522)"><circle cx="91.601" cy="59.531" r="21.828" fill="none" stroke="#000" stroke-width="2.5"/><g><path d="m87.566 30.522c-0.69588 0-1.2563 0.68952-1.2563 1.5462v0.87643c0 0.85663 0.56038 1.5462 1.2563 1.5462h2.051v2.6458h3.9688v-2.6458h2.051c0.69588 0 1.2563-0.68952 1.2563-1.5462v-0.87643c0-0.85663-0.56038-1.5462-1.2563-1.5462z"/><path d="m105.35 36.607c-0.25819 0.01669-0.5287 0.16665-0.71624 0.42478l-0.30696 0.4222c-0.30006 0.413-0.27142 0.9417 0.0641 1.1855l0.98909 0.7183-0.92656 1.2759 1.9131 1.3901 0.92708-1.2754 0.98857 0.7183c0.3355 0.24375 0.84715 0.1076 1.1472-0.30541l0.30696-0.42272c0.30008-0.413 0.27194-0.9417-0.0636-1.1855l-3.8918-2.8272c-0.12581-0.09141-0.27608-0.12888-0.43099-0.11886z"/><path d="m90.892 56.981c-1.4057 0.39177-2.2288 1.8476-1.8397 3.2541 0.38956 1.4084 1.8471 2.2343 3.2554 1.8447 0.22489-0.06227 0.44056-0.15401 0.64139-0.27285l16.183-6.8842-17.543 1.9615c-0.23389 0.0011-0.46661 0.03318-0.69206 0.09545l-5e-3 0.0014z"/><path d="m91.601 41.726v14.485c0.05592-0.0031 0.11186-0.0059 0.16795-0.0062l17.175-1.9203a18.149 17.806 0 0 0-17.343-12.558z"/></g></g></svg>
